<?xml version="1.0" encoding="UTF-8"?>
<svg id="Layer_2" xmlns="http://www.w3.org/2000/svg" viewBox="0 0 218.17 76.3">
  <defs>
    <style>
      .cls-1, .cls-2 {
        fill: #3bb54b;
      }

      .cls-1, .cls-3 {
        fill-rule: evenodd;
      }

      .cls-3, .cls-4 {
        fill: #222;
      }
    </style>
  </defs>
  <g id="Layer_1-2" data-name="Layer_1">
    <g>
      <path class="cls-2" d="M193.28,67.28h0c.1-.44.12-1.05.03-1.86-.12-1.23-.46-2.84-.94-4.52-.45-1.6-1.49-4.84-2.63-5.92l2.83-.04c2.1.05,1.77,1.96,2.51,2.51.39.29.76.28,1.04.28.09,0,.18,0,.25,0,.28.04.63.19.73.55l.15.52.19.66.19.66.15.52c.1.36-.11.67-.33.85-.22.18-.71.31-.95.92-.34.85.95,2.31-.81,3.45l-2.39,1.43ZM189.03,55.4c.36.06,1.47,1.78,2.59,5.71,1.11,3.91,1.08,5.95.81,6.21-2.58,1.37-4.78,2.61-8.37,6.15l-.87-3.08c1.76-1.53,3.63-2.56,5.14-3.39-1.66.59-3.44,1.48-5.31,2.8l-1.04-3.65,4.49-1.86-4.67,1.22-.43-1.5-1.52-5.35c3.06.03,5.52-.49,7.65-1.02-2.24.18-4.91.3-8-.23l-.81-2.86c4.9,1.12,7.43,1.03,10.34.84ZM198.41,60.21h0l-.61-2.13c-.05-.17-.14-.33-.25-.47,6.06-2.71,10.26-6.29,11.49-10.37,3.02-10.04-12.96-19.34-35.71-20.78-7.64-.48-15.07,0-21.69,1.21,6.64-1.82,14.43-2.85,22.64-2.85,2.04,0,4.1.06,6.18.19,23.77,1.49,40.48,11.22,37.32,21.71-1.74,5.77-9.13,10.57-19.38,13.48ZM152.85,28.4c12.79-1.81,26.05-1.11,38.36,2.86,7.89,2.51,20.63,9.89,12.88,19.23-2.03,2.42-4.83,4.24-7.61,5.84,2.93-1.38,5.78-3.09,7.97-5.51,8.41-9.69-4.57-17.65-13.02-20.22-12.37-3.94-25.87-4.47-38.58-2.19Z"/>
      <g>
        <path class="cls-1" d="M36.27,61.67C11.98,60.12-3.89,50.11.83,39.29c2.65-6.09,11.28-11.14,22.64-14.1l.4,2.6c-6.99,2.83-12.07,6.62-13.96,10.98-4.51,10.35,10.67,19.93,33.91,21.4,7.81.5,15.53,0,22.52-1.24-7.09,1.88-15.28,2.94-23.75,2.94-2.09,0-4.21-.07-6.32-.2Z"/>
        <path class="cls-2" d="M65.19,58.17c-13.43,1.86-27,1.14-39.13-2.95-7.78-2.59-19.88-10.19-10.6-19.82,2.43-2.49,5.57-4.37,8.65-6.02-3.21,1.42-6.39,3.18-8.98,5.68-10.01,9.99,2.26,18.19,10.6,20.84,12.2,4.07,26.04,4.6,39.45,2.26"/>
        <path class="cls-1" d="M24.34,15.45h0c.94.33,1.6,1.13,1.75,2.12l.48,3.06c.1.62.38,1.18.81,1.61.76.74,1.91,1,3.04.68l.95-.27c1.39-.39,2.71-1.05,3.98-1.81.35-.21.73-.38,1.13-.49l7.3-2.04c.48-.13.93.13,1,.59l.3,1.96c.07.46-.26.94-.74,1.08l-7.31,2.04c-.4.11-.79.16-1.18.16-1.39-.01-2.79.08-4.18.47l-.95.27c-1.14.32-2.11,1.17-2.59,2.26-.27.62-.36,1.28-.27,1.91l.48,3.06c.16,1-.21,2.08-.97,2.89l-.15-.06-3.01-19.35.12-.14ZM25.84,35.36l-.05-.32-2.93-18.81-.04-.28c0-.06.03-.12.09-.14l.17-.05.53-.15c.06-.02.12.02.13.08l3.02,19.41c0,.06-.03.12-.09.14l-.53.15-.17.05s-.02,0-.03,0c-.05,0-.09-.03-.1-.08Z"/>
      </g>
      <path class="cls-2" d="M73.82,52.65c-1.29,0-2.48-.23-3.58-.7-1.1-.47-2.06-1.11-2.86-1.92-.8-.81-1.43-1.77-1.88-2.87-.45-1.1-.68-2.28-.68-3.53v-.05c0-1.25.23-2.43.68-3.52.45-1.09,1.08-2.06,1.88-2.88.8-.83,1.76-1.48,2.88-1.95,1.12-.48,2.36-.71,3.71-.71.82,0,1.56.07,2.24.2.68.13,1.29.32,1.84.55.55.23,1.06.52,1.53.85.47.33.9.7,1.3,1.1l-2.46,2.83c-.68-.62-1.38-1.1-2.09-1.45-.71-.35-1.51-.53-2.39-.53-.73,0-1.42.14-2.04.43-.63.28-1.17.67-1.62,1.18-.45.5-.8,1.08-1.05,1.74-.25.66-.38,1.36-.38,2.12v.05c0,.75.13,1.46.38,2.13.25.67.6,1.25,1.04,1.75.44.5.98.9,1.6,1.19.63.29,1.32.44,2.07.44,1,0,1.85-.18,2.54-.55.69-.37,1.38-.87,2.07-1.5l2.46,2.48c-.45.49-.92.92-1.4,1.3-.49.39-1.02.71-1.59.99-.58.28-1.21.49-1.89.63-.68.14-1.45.21-2.31.21M83.87,34.06h3.81v18.29h-3.81v-18.29ZM100.08,44.58c-.12-.85-.42-1.54-.9-2.07-.49-.53-1.13-.79-1.93-.79s-1.45.26-1.94.78c-.49.52-.81,1.21-.97,2.08h5.74ZM97.62,52.65c-1,0-1.93-.17-2.79-.5-.86-.33-1.6-.81-2.23-1.43-.63-.62-1.12-1.35-1.47-2.19-.35-.84-.53-1.78-.53-2.82v-.05c0-.95.16-1.85.49-2.71.32-.85.78-1.59,1.37-2.23.58-.63,1.28-1.13,2.09-1.5.81-.37,1.71-.55,2.69-.55,1.12,0,2.09.2,2.91.6.82.4,1.5.94,2.04,1.62.54.68.94,1.45,1.2,2.33.26.88.39,1.79.39,2.74,0,.15,0,.31-.01.48,0,.17-.02.34-.04.53h-9.35c.18.87.56,1.52,1.14,1.96.58.44,1.29.67,2.14.67.63,0,1.2-.11,1.7-.33.5-.21,1.02-.57,1.55-1.05l2.18,1.93c-.63.78-1.4,1.4-2.3,1.84-.9.44-1.96.66-3.18.66ZM111.58,49.97c.9,0,1.62-.22,2.17-.65.54-.43.81-1,.81-1.7v-.68c-.33-.15-.71-.27-1.11-.36-.41-.09-.85-.14-1.32-.14-.82,0-1.46.16-1.93.48-.47.32-.7.78-.7,1.38v.05c0,.52.19.92.58,1.2.38.28.89.43,1.5.43ZM110.42,52.6c-.63,0-1.23-.09-1.79-.26-.56-.18-1.05-.44-1.47-.79-.42-.35-.75-.78-.99-1.29-.24-.51-.36-1.1-.36-1.77v-.05c0-.73.13-1.37.4-1.9s.64-.98,1.11-1.33c.48-.35,1.04-.61,1.7-.79.66-.17,1.39-.26,2.19-.26.68,0,1.28.05,1.79.15.51.1,1.01.23,1.49.4v-.23c0-.8-.24-1.41-.73-1.83-.48-.42-1.2-.62-2.15-.62-.73,0-1.38.06-1.94.19-.56.12-1.15.3-1.77.54l-.95-2.91c.73-.32,1.5-.58,2.3-.78.8-.2,1.77-.3,2.91-.3,1.05,0,1.95.13,2.69.39.74.26,1.36.63,1.84,1.12.5.5.87,1.12,1.1,1.84.23.73.35,1.54.35,2.44v7.79h-3.68v-1.45c-.47.52-1.03.93-1.68,1.24-.65.31-1.45.46-2.38.46ZM121.45,38.92h3.81v1.9c.22-.28.46-.56.71-.81.26-.26.55-.49.86-.69s.67-.36,1.05-.48c.39-.12.82-.18,1.3-.18,1.45,0,2.58.44,3.37,1.33.79.88,1.19,2.1,1.19,3.66v8.69h-3.81v-7.49c0-.9-.2-1.58-.6-2.04-.4-.46-.97-.69-1.7-.69s-1.32.23-1.74.69c-.43.46-.64,1.14-.64,2.04v7.49h-3.81v-13.43Z"/>
    </g>
    <g>
      <path class="cls-4" d="M155.05,45.01l-2.33-5.69-2.33,5.69h4.66ZM150.99,34.68h3.56l7.52,17.66h-4.03l-1.61-3.94h-7.41l-1.6,3.94h-3.93l7.52-17.66ZM168.86,38.37h-5.34v-3.56h14.53v3.56h-5.34v13.98h-3.86v-13.98ZM185.79,43.43l-5.86-8.62h4.51l3.68,5.69,3.71-5.69h4.38l-5.87,8.57,6.12,8.97h-4.51l-3.93-6.01-3.96,6.01h-4.38l6.11-8.92Z"/>
      <path class="cls-4" d="M33.22,45.01l-2.33-5.69-2.33,5.69h4.66ZM29.17,34.68h3.56l7.52,17.66h-4.03l-1.61-3.94h-7.42l-1.6,3.94h-3.94l7.52-17.66ZM42.72,34.06h3.81v18.29h-3.81v-18.29ZM50.29,34.06h3.81v18.29h-3.81v-18.29Z"/>
      <path class="cls-4" d="M177.2,58.83h1.78v1.67h-1.78v-1.67ZM173.44,58.34c0,.34.07.6.22.76.14.17.33.25.54.25.19,0,.36-.08.49-.24.13-.16.2-.43.2-.81,0-.35-.07-.61-.2-.77-.13-.17-.3-.25-.5-.25-.21,0-.39.08-.53.25-.14.16-.21.44-.21.81ZM171.78,62.14v-5.98h1.55v.64c.22-.27.41-.45.59-.55.24-.13.51-.19.8-.19.58,0,1.03.22,1.34.67.31.44.47.99.47,1.64,0,.72-.17,1.27-.52,1.65-.34.38-.78.57-1.31.57-.26,0-.49-.04-.7-.13-.21-.09-.4-.22-.57-.39v2.07h-1.68ZM169.04,54.51h1.66v5.98h-1.66v-5.98ZM166.54,57.94c-.03-.32-.12-.55-.26-.69-.14-.14-.33-.21-.55-.21-.26,0-.47.11-.63.32-.1.13-.17.32-.19.58h1.64ZM168.23,58.74h-3.33c.03.27.1.47.21.6.16.19.37.28.63.28.16,0,.32-.04.46-.12.09-.05.19-.14.29-.27l1.64.15c-.25.44-.55.75-.9.94-.35.19-.86.28-1.52.28-.57,0-1.02-.08-1.35-.24-.33-.16-.6-.42-.82-.77-.21-.35-.32-.76-.32-1.24,0-.68.22-1.23.65-1.64.43-.42,1.03-.63,1.8-.63.62,0,1.11.09,1.47.28.36.19.63.46.82.81.19.36.28.82.28,1.39v.19ZM157.85,54.51h1.66v2.2c.23-.23.45-.4.67-.5.22-.1.49-.15.79-.15.45,0,.8.14,1.07.41.26.27.39.7.39,1.26v2.75h-1.67v-2.38c0-.27-.05-.46-.15-.58-.1-.11-.24-.17-.42-.17-.2,0-.37.08-.49.23-.12.15-.19.43-.19.82v2.08h-1.66v-5.98ZM149.49,56.16h1.55v.7c.23-.29.46-.49.7-.62.24-.13.53-.19.86-.19.46,0,.82.14,1.08.41.26.27.39.7.39,1.27v2.75h-1.67v-2.38c0-.27-.05-.46-.15-.58-.1-.11-.24-.17-.42-.17-.2,0-.36.08-.49.23-.13.15-.19.43-.19.82v2.08h-1.66v-4.33ZM146.87,58.43c-.23.08-.47.15-.71.22-.34.09-.55.18-.64.26-.09.09-.14.19-.14.31,0,.13.05.24.14.32.09.08.22.12.4.12s.36-.04.52-.13c.16-.09.27-.2.34-.33.07-.13.1-.3.1-.5v-.27ZM145.43,57.56l-1.59-.17c.06-.28.15-.49.26-.65.11-.16.27-.3.49-.41.15-.08.36-.15.63-.2.27-.04.55-.07.87-.07.5,0,.9.03,1.2.08.3.06.55.17.75.35.14.12.25.3.33.52.08.22.12.44.12.64v1.91c0,.2.01.36.04.48.03.12.08.26.17.44h-1.56c-.06-.11-.1-.2-.12-.26-.02-.06-.04-.15-.06-.27-.22.21-.44.36-.65.45-.29.12-.63.18-1.02.18-.52,0-.91-.12-1.18-.36-.27-.24-.4-.53-.4-.88,0-.33.09-.6.29-.81.19-.21.55-.37,1.07-.47.62-.13,1.03-.21,1.21-.26.18-.05.38-.12.59-.2,0-.21-.04-.35-.13-.43-.08-.08-.23-.12-.44-.12-.27,0-.48.05-.61.13-.11.07-.19.2-.26.38ZM141.58,58.8l1.58.18c-.09.33-.23.61-.43.86-.2.24-.45.43-.76.56-.3.13-.7.2-1.17.2s-.84-.04-1.15-.13c-.31-.09-.57-.23-.79-.42-.22-.19-.4-.42-.52-.67-.13-.26-.19-.6-.19-1.03s.07-.82.23-1.12c.11-.22.26-.41.46-.58.19-.17.39-.3.6-.39.32-.13.74-.2,1.24-.2.71,0,1.25.13,1.62.38.37.25.63.62.78,1.11l-1.56.21c-.05-.18-.14-.32-.27-.42-.13-.09-.3-.14-.52-.14-.27,0-.5.1-.66.3-.17.2-.26.49-.26.89,0,.36.08.62.25.81.17.18.38.28.64.28.22,0,.4-.06.55-.17.15-.11.26-.28.33-.51ZM133.11,57.94c-.03-.32-.12-.55-.26-.69-.14-.14-.32-.21-.55-.21-.27,0-.47.11-.63.32-.1.13-.17.32-.19.58h1.64ZM134.8,58.74h-3.33c.03.27.1.47.22.6.16.19.37.28.63.28.16,0,.32-.04.46-.12.09-.05.19-.14.29-.27l1.64.15c-.25.44-.55.75-.91.94-.35.19-.86.28-1.52.28-.57,0-1.02-.08-1.35-.24-.33-.16-.6-.42-.82-.77-.21-.35-.32-.76-.32-1.24,0-.68.22-1.23.65-1.64.43-.42,1.03-.63,1.8-.63.62,0,1.11.09,1.47.28.36.19.63.46.82.81.19.36.28.82.28,1.39v.19ZM121.34,54.51h1.75l.63,3.34.92-3.34h1.75l.93,3.34.63-3.34h1.75l-1.32,5.98h-1.81l-1.05-3.76-1.04,3.76h-1.81l-1.33-5.98ZM116.29,58.83h1.78v1.67h-1.78v-1.67ZM111.49,56.16h1.75l.89,2.88.83-2.88h1.64l-1.72,4.63c-.2.53-.4.88-.6,1.07-.29.26-.73.39-1.32.39-.24,0-.61-.03-1.11-.1l-.13-1.16c.24.08.5.11.8.11.2,0,.36-.04.48-.13.12-.09.22-.25.31-.48l-1.82-4.33ZM106.57,59.29l1.65-.16c.07.2.16.34.28.42.12.08.29.13.49.13.22,0,.39-.05.52-.14.09-.07.14-.16.14-.26,0-.12-.06-.21-.19-.28-.09-.05-.33-.1-.71-.17-.58-.1-.98-.19-1.2-.28-.23-.08-.41-.23-.57-.43-.15-.2-.23-.44-.23-.7,0-.28.09-.53.25-.74.17-.21.4-.36.69-.46.29-.1.68-.15,1.17-.15.52,0,.9.04,1.15.12.25.08.45.2.62.37.16.17.3.39.41.67l-1.58.16c-.04-.14-.11-.24-.2-.31-.13-.09-.29-.13-.47-.13s-.32.04-.41.1c-.09.07-.13.15-.13.24,0,.11.05.19.16.24.11.05.35.1.71.15.55.06.96.15,1.23.26.27.11.48.27.62.48.14.21.22.43.22.68s-.08.49-.23.73c-.15.24-.39.42-.71.56-.33.14-.77.21-1.33.21-.79,0-1.35-.11-1.69-.34-.34-.22-.55-.55-.65-.96ZM105.86,60.49h-1.55v-.7c-.23.29-.46.49-.7.62-.24.12-.53.18-.87.18-.46,0-.81-.13-1.07-.41-.26-.27-.39-.69-.39-1.26v-2.76h1.67v2.38c0,.27.05.46.15.58.1.12.24.17.42.17.2,0,.36-.08.49-.23.13-.15.19-.43.19-.82v-2.08h1.66v4.33ZM97.39,58.31c0,.37.07.64.21.81.14.17.32.25.53.25.2,0,.36-.08.5-.25.13-.17.2-.44.2-.83,0-.34-.07-.59-.2-.75-.13-.16-.29-.24-.48-.24-.22,0-.41.08-.55.25-.14.17-.21.42-.21.76ZM95.73,54.51h1.68v2.07c.17-.17.35-.3.57-.39.21-.09.44-.13.7-.13.53,0,.96.19,1.31.57.35.38.52.93.52,1.63,0,.47-.08.89-.24,1.25-.16.36-.38.63-.65.81-.28.18-.59.27-.93.27-.29,0-.56-.06-.8-.19-.18-.1-.38-.28-.6-.55v.64h-1.55v-5.98ZM87.54,59.29l1.65-.16c.07.2.16.34.28.42.12.08.29.13.49.13.22,0,.39-.05.52-.14.09-.07.14-.16.14-.26,0-.12-.06-.21-.19-.28-.09-.05-.33-.1-.71-.17-.58-.1-.98-.19-1.2-.28-.23-.08-.41-.23-.57-.43-.15-.2-.23-.44-.23-.7,0-.28.08-.53.25-.74.17-.21.4-.36.69-.46.29-.1.68-.15,1.17-.15.52,0,.9.04,1.15.12.25.08.45.2.62.37.16.17.3.39.41.67l-1.57.16c-.04-.14-.11-.24-.2-.31-.13-.09-.29-.13-.47-.13s-.32.04-.41.1c-.09.07-.13.15-.13.24,0,.11.05.19.16.24.11.05.35.1.71.15.55.06.96.15,1.23.26.27.11.48.27.62.48.14.21.22.43.22.68s-.08.49-.23.73c-.15.24-.39.42-.71.56-.33.14-.77.21-1.33.21-.79,0-1.35-.11-1.69-.34-.34-.22-.55-.55-.65-.96ZM85.11,56.16h1.66v4.33h-1.66v-4.33ZM85.11,54.51h1.66v1.13h-1.66v-1.13ZM79.81,57.94c-.03-.32-.12-.55-.26-.69-.14-.14-.32-.21-.55-.21-.26,0-.47.11-.63.32-.1.13-.17.32-.19.58h1.64ZM81.5,58.74h-3.33c.03.27.1.47.22.6.16.19.37.28.63.28.16,0,.32-.04.46-.12.09-.05.19-.14.29-.27l1.64.15c-.25.44-.55.75-.9.94-.35.19-.86.28-1.52.28-.57,0-1.02-.08-1.35-.24-.33-.16-.6-.42-.82-.77-.22-.35-.32-.76-.32-1.24,0-.68.22-1.23.65-1.64.43-.42,1.03-.63,1.8-.63.62,0,1.11.09,1.47.28.36.19.63.46.82.81.19.36.28.82.28,1.39v.19ZM75.44,56.16h.79v1.21h-.79v3.12h-1.67v-3.12h-.62v-1.21h.62v-.2c0-.18.02-.37.06-.58.04-.21.11-.38.22-.52.1-.13.25-.24.44-.33.19-.08.47-.12.83-.12.29,0,.71.03,1.27.1l-.18,1c-.2-.03-.36-.05-.48-.05-.15,0-.26.02-.32.08-.07.05-.11.13-.14.24-.01.06-.02.19-.02.38ZM70.87,56.16h1.66v4.33h-1.66v-4.33ZM70.87,54.51h1.66v1.13h-1.66v-1.13ZM65.34,54.51h1.85v4.5h2.88v1.47h-4.73v-5.98Z"/>
      <path class="cls-3" d="M103.76,27.59h1.64v-2.1s-1.63,0-1.63,0l-.02,2.1ZM104.45,23.2h-.65l-.02,1.85h1.64v-.85c0-.56-.43-1-.98-1ZM101.7,27.59h1.65l.02-2.1h-1.64l-.02,2.1ZM101.73,24.19v.85s1.64,0,1.64,0l.02-1.85h-.66c-.54,0-.99.44-1,1ZM59.58,27.84h1.64l.02-2.11h-1.65v2.11ZM60.27,23.46h-.65l-.02,1.84h1.64v-.85c0-.55-.43-.99-.97-.99ZM57.52,27.84h1.64l.02-2.11h-1.65v2.11ZM57.55,24.45v.85s1.64,0,1.64,0l.02-1.84h-.65c-.55,0-.99.44-1,.99ZM69.36,28.44h24.45l9.22-11.43,10.31,10.34.02-1.53v-.05s.01-.04.01-.04l-9.87-9.98h-14.74l-2.87-3.31-8.82-1.25-1.16,2.02v-2.73c.02-.28-.17-.53-.44-.59-.51-.11-1.09-.24-1.64-.35-.04,0-.08-.01-.12-.01-.32,0-.6.26-.59.6v.5s-6.55-.92-6.55-.92l-5.31,5.7h0l-2.47-.28s-10.65,10.77-15.72,15.99h3.4l13.14-13.45,9.76,10.78ZM92.59,19.47c.6,0,1.13-.49,1.17-1.08.05-.6-.4-1.1-1.01-1.1s-1.12.49-1.17,1.1c-.04.6.4,1.08,1.01,1.08ZM92.96,18.49c.17,0,.29.13.28.29-.02.16-.16.3-.32.3s-.29-.14-.27-.3c.02-.16.15-.29.32-.29ZM88.54,24.12c-.16,0-.32.13-.32.3-.02.16.1.3.28.3.16,0,.31-.13.32-.3.01-.17-.11-.3-.28-.3ZM88.44,24.39s-.07-.04-.07-.08c0-.04.04-.08.09-.08s.08.04.07.08c0,.04-.04.08-.08.08ZM88.18,18.19c-.16,0-.32.14-.32.31-.02.17.11.3.27.3.18,0,.32-.14.33-.3.01-.17-.11-.31-.27-.31ZM88.07,18.46s-.07-.03-.07-.08c0-.05.04-.08.08-.08.05,0,.09.03.08.08,0,.05-.05.08-.09.08ZM81.82,18.2c-.34,0-.63.27-.65.6-.03.33.22.61.56.61s.62-.27.64-.61c.03-.33-.22-.6-.55-.6ZM81.61,18.74c-.09,0-.15-.07-.15-.17,0-.09.08-.16.17-.16s.16.08.15.16c0,.09-.09.17-.18.17ZM79.88,15.53c-.23,0-.43.19-.46.43-.01.23.16.42.4.42s.43-.19.46-.42c.02-.24-.16-.43-.4-.43ZM79.73,15.92c-.06,0-.11-.05-.1-.11,0-.06.05-.12.12-.12.06,0,.11.05.11.12,0,.06-.07.11-.13.11ZM81.99,21.69l-.97-.15.99-.13c1.2-.36,2.16-1.32,2.51-2.52l.42-1.43.2,1.43c.17,1.2.98,2.17,2.12,2.52l.96.13-.98.15c-1.2.36-2.17,1.32-2.51,2.52l-.41,1.4-.19-1.4c-.17-1.2-.97-2.16-2.12-2.52ZM68.42,16.22l-4.28-.49,3.48-3.74,12.22,13.14-1.66,1.75-9.75-10.67Z"/>
      <path class="cls-3" d="M130.38,9.83l-5.78,2.03v15.73h5.78V9.83ZM117.09.11l11.87,4.39v4.37h0l-.6.22-1.12.41v-3.5l-1.54-.49v4.56l-.75.28v-5.07l-1.56-.5v22.81h-.75V4.54l-1.54-.48v23.52h-.75V3.83l-1.55-.5v24.26h-1.71V.11ZM116.6,0l-3.95,2.89v24.7h3.95V0ZM155.45,13.64l-8.48-1.86v2.29l8.48,1.78v-2.21ZM155.45,9.91l-8.48-1.93v2.28l8.48,1.87v-2.22ZM155.45,6.18l-8.48-2.03v2.27l8.48,1.97v-2.21ZM140.3,11.49l-8.73-1.74v2.07l8.01,1.37v1.98l-3.64-.58-4.37-.7v1.01l4.37.67,3.64.56v1.9l-3.65-.5-4.36-.63v1.02l4.36.59,3.65.48v1.91l-3.65-.44-4.36-.55v1.01l4.36.5,3.65.42v1.89l-3.66-.38-4.36-.46v4.7h8.73V11.49ZM141.58,21.34l6.1-3v.63l-6.1,3v-.63ZM140.94,20.82l7.3-3.88v10.65h-7.3v-6.77ZM153.85,18.76l-4.82-1.82v10.65h4.82v-8.83ZM157.94,20.31l-3.82-1.45v8.72h3.82v-7.28ZM138.64,3.64l.13-.08,5.88-3.14,12.33,3.75v2.38l.02.02-.64.17v1.87l.62.15v1.49l.02.03-.64.17v1.87l.62.15v1.49l.02.03-.64.18v1.88l.62.14v1.5h.02s-.64.2-.64.2v1.32l-.91-.46v-1.37l-8.48-1.77v1.13l.04.02-3.78,2.04V3.51l-.65.33v15.26l-1.65.95V4.56l-.65.35v5.34l-1.65-.28V3.64Z"/>
      <path class="cls-4" d="M59.63,1.57c.39,0,.7.32.7.7,0,.39-.32.7-.71.7s-.7-.31-.7-.7c0-.39.32-.7.71-.7M59.82,2.21c.1,0,.19-.09.19-.19,0-.11-.08-.19-.19-.19s-.19.08-.19.19c0,.1.08.19.19.19ZM56.05,5.99c.55,0,1,.45,1,1,0,.56-.45,1-1.01,1s-1-.45-1-1c0-.55.46-1,1.01-1ZM56.32,6.9c.15,0,.27-.12.27-.27,0-.15-.12-.27-.27-.27s-.27.12-.27.27c0,.15.12.27.27.27ZM45.47,5.98c.28,0,.5.23.5.5,0,.28-.23.5-.5.5s-.5-.22-.5-.5c0-.28.23-.5.5-.5ZM45.61,6.43c.07,0,.13-.06.13-.14,0-.08-.06-.14-.13-.14s-.14.06-.14.14.06.14.14.14ZM44.04,15.84c.28,0,.5.22.5.5,0,.28-.23.5-.5.5s-.5-.22-.5-.5c0-.28.23-.5.5-.5ZM44.18,16.29c.08,0,.14-.06.14-.14,0-.07-.06-.14-.14-.14s-.13.06-.13.14c0,.08.06.14.13.14ZM37.96,8.12c-1,0-1.81-.81-1.8-1.81,0-1,.82-1.81,1.82-1.81s1.81.81,1.8,1.81c0,1-.82,1.81-1.82,1.81ZM37.47,6.48c-.27,0-.49.22-.49.49,0,.27.22.49.49.49s.49-.22.5-.49c0-.27-.22-.49-.49-.49ZM55.26,11.79l1.64-.26-1.63-.2c-1.95-.6-3.41-2.21-3.83-4.2l-.5-2.38-.53,2.38c-.44,2-1.92,3.6-3.87,4.2l-1.61.2,1.61.26c1.94.6,3.4,2.2,3.82,4.19l.49,2.33.52-2.33c.44-1.99,1.92-3.59,3.87-4.19Z"/>
      <path class="cls-4" d="M151.36,76.3c-.39,0-.7-.32-.7-.7,0-.39.32-.7.71-.7s.7.31.7.7c0,.39-.32.7-.71.7M151.16,75.66c-.1,0-.19.08-.19.19,0,.11.08.19.19.19s.19-.08.19-.19c0-.1-.08-.19-.19-.19ZM154.94,71.87c-.55,0-1-.45-1-1,0-.56.45-1,1.01-1s1,.45,1,1c0,.55-.45,1-1.01,1ZM154.66,70.97c-.15,0-.27.12-.27.27,0,.15.12.27.27.27s.27-.12.27-.27c0-.15-.12-.27-.27-.27ZM165.51,71.89c-.28,0-.5-.22-.5-.5,0-.28.23-.5.5-.5s.5.22.5.5c0,.28-.23.5-.5.5ZM165.37,71.44c-.07,0-.13.06-.13.14,0,.08.06.13.13.13s.14-.06.14-.13c0-.08-.06-.14-.14-.14ZM166.94,62.03c-.28,0-.5-.22-.5-.5,0-.28.23-.5.5-.5s.5.22.5.5c0,.28-.23.5-.5.5ZM166.8,61.58c-.08,0-.14.06-.14.14s.06.14.14.14.13-.06.13-.14c0-.08-.06-.14-.13-.14ZM173.02,69.75c1,0,1.81.81,1.8,1.81,0,1-.82,1.81-1.82,1.81s-1.81-.81-1.8-1.81c0-1,.82-1.81,1.82-1.81ZM173.51,71.39c.27,0,.49-.22.49-.49,0-.27-.22-.49-.49-.49s-.49.22-.49.49c0,.27.22.49.49.49ZM155.72,66.07l-1.64.26,1.63.21c1.95.6,3.41,2.21,3.83,4.2l.5,2.38.53-2.38c.44-2,1.92-3.6,3.87-4.2l1.61-.21-1.61-.26c-1.94-.6-3.4-2.2-3.82-4.19l-.49-2.33-.52,2.33c-.44,1.99-1.92,3.59-3.87,4.19Z"/>
      <path class="cls-4" d="M161.8,3.08c-.39,0-.7.32-.7.7,0,.39.32.7.71.7s.7-.31.7-.7c0-.39-.32-.7-.71-.7M161.6,3.72c-.1,0-.19-.08-.19-.19,0-.11.08-.19.19-.19s.19.08.19.19c0,.1-.08.19-.19.19ZM165.38,7.5c-.56,0-1,.45-1,1,0,.56.45,1,1.01,1s1-.45,1-1c0-.55-.46-1-1.01-1ZM165.1,8.41c-.15,0-.27-.12-.27-.27,0-.15.12-.27.27-.27s.27.12.27.27c0,.15-.12.27-.27.27ZM175.95,7.49c-.28,0-.5.23-.5.5,0,.28.23.5.5.5s.5-.22.5-.5c0-.28-.23-.5-.5-.5ZM175.81,7.94c-.07,0-.13-.06-.13-.14,0-.08.06-.14.13-.14s.14.06.14.14c0,.08-.06.14-.14.14ZM177.38,17.34c-.28,0-.5.22-.5.5,0,.28.23.5.5.5s.5-.22.5-.5c0-.28-.23-.5-.5-.5ZM177.24,17.8c-.08,0-.14-.06-.14-.14s.06-.14.14-.14.13.06.13.14-.06.14-.13.14ZM183.46,9.63c1,0,1.81-.81,1.8-1.81,0-1-.82-1.81-1.82-1.81s-1.81.81-1.8,1.81c0,1,.82,1.81,1.82,1.81ZM183.95,7.99c.27,0,.49.22.49.49,0,.27-.22.49-.49.49s-.49-.22-.5-.49c0-.27.22-.49.49-.49ZM166.16,13.3l-1.64-.26,1.63-.2c1.95-.6,3.41-2.21,3.83-4.2l.5-2.38.53,2.38c.44,2,1.92,3.6,3.87,4.2l1.61.2-1.62.26c-1.94.6-3.4,2.2-3.82,4.19l-.49,2.33-.52-2.33c-.44-1.99-1.92-3.59-3.87-4.19Z"/>
      <path class="cls-4" d="M86.07,17.17c-.39,0-.7-.32-.7-.7,0-.39.32-.7.71-.7s.7.31.7.7c0,.39-.32.7-.71.7M85.88,16.53c-.1,0-.19.08-.19.19,0,.11.08.19.19.19s.19-.08.19-.19c0-.1-.08-.19-.19-.19ZM89.65,12.75c-.55,0-1-.45-1-1,0-.56.45-1,1.01-1s1,.45,1,1c0,.55-.46,1-1.01,1ZM89.38,11.84c-.15,0-.27.12-.27.27,0,.15.12.27.27.27s.27-.12.27-.27c0-.15-.12-.27-.27-.27ZM100.22,12.77c-.28,0-.5-.22-.5-.5,0-.28.23-.5.5-.5s.5.22.5.5c0,.28-.23.5-.5.5ZM100.09,12.31c-.07,0-.13.06-.14.14,0,.08.06.14.13.14s.14-.06.14-.14c0-.08-.06-.14-.14-.14ZM101.65,2.91c-.28,0-.5-.22-.5-.5,0-.28.23-.5.5-.5s.5.22.5.5c0,.28-.23.5-.5.5ZM101.52,2.45c-.08,0-.14.06-.14.14s.06.14.14.14.13-.06.13-.14c0-.08-.06-.14-.13-.14ZM107.73,10.62c1,0,1.81.81,1.8,1.81,0,1-.82,1.81-1.82,1.81s-1.81-.81-1.8-1.81c0-1,.82-1.81,1.82-1.81ZM108.22,12.26c.27,0,.49-.22.49-.49,0-.27-.22-.49-.49-.49s-.49.22-.5.49c0,.27.22.49.49.49ZM90.43,6.95l-1.64.26,1.63.2c1.95.6,3.41,2.21,3.83,4.2l.5,2.38.53-2.38c.44-2,1.92-3.6,3.87-4.2l1.61-.2-1.62-.26c-1.94-.6-3.4-2.2-3.82-4.19l-.49-2.33-.52,2.33c-.44,1.99-1.92,3.59-3.87,4.19Z"/>
    </g>
  </g>
</svg>